<svg width="159" height="314" viewBox="0 0 159 314" fill="none" xmlns="http://www.w3.org/2000/svg">
<path d="M0.850401 246.169C0.475074 243.618 0.220964 241.027 0.0941086 238.402L2.09178 238.306C2.03083 237.045 2 235.776 2 234.5V230.544H0V222.632H2V214.721H0V206.809H2V198.897H0V190.985H2V183.073H0V175.162H2V167.25H0V159.338H2V151.426H0V143.515H2V135.603H0V127.691H2V119.779H0V111.868H2V103.956H0V96.0441H2V88.1324H0V80.2206H2V72.3088H0V64.3971H2V56.4853H0V48.5735H2V40.6618H0V32.75H2V24.8382H0V16.9265H2V9.01472H0V1.10294H2V-6.80882H0V-14.7206H2V-22.6323H0V-30.5441H2V-34.5C2 -35.7762 2.03083 -37.0451 2.09178 -38.3059L0.094108 -38.4025C0.220963 -41.0269 0.475072 -43.6179 0.850397 -46.1694L2.8291 -45.8784C3.20111 -48.4073 3.69523 -50.8963 4.30526 -53.3393L2.36485 -53.8238C2.99903 -56.3634 3.75536 -58.8547 4.62722 -61.291L6.51027 -60.6172C7.36856 -63.0156 8.34175 -65.3594 9.42326 -67.642L7.61586 -68.4983C8.73344 -70.8571 9.96371 -73.1521 11.2997 -75.3764L13.0142 -74.3466C14.3229 -76.5254 15.7357 -78.6346 17.2458 -80.6675L15.6403 -81.8601C17.1935 -83.951 18.847 -85.963 20.5936 -87.889L22.0751 -86.5454C23.7796 -88.4249 25.5751 -90.2204 27.4546 -91.9249L26.111 -93.4064C28.037 -95.153 30.049 -96.8065 32.1399 -98.3597L33.3325 -96.7542C35.3654 -98.2643 37.4746 -99.6771 39.6534 -100.986L38.6236 -102.7C40.8479 -104.036 43.1429 -105.267 45.5016 -106.384L46.358 -104.577C48.6406 -105.658 50.9844 -106.631 53.3828 -107.49L52.7089 -109.373C55.1453 -110.245 57.6365 -111.001 60.1762 -111.635L60.6607 -109.695C63.1037 -110.305 65.5927 -110.799 68.1216 -111.171L67.8306 -113.15C70.3821 -113.525 72.9731 -113.779 75.5975 -113.906L75.6941 -111.908C76.9549 -111.969 78.2238 -112 79.5 -112C80.7762 -112 82.0451 -111.969 83.3059 -111.908L83.4025 -113.906C86.0269 -113.779 88.6179 -113.525 91.1694 -113.15L90.8784 -111.171C93.4073 -110.799 95.8963 -110.305 98.3393 -109.695L98.8238 -111.635C101.363 -111.001 103.855 -110.245 106.291 -109.373L105.617 -107.49C108.016 -106.631 110.359 -105.658 112.642 -104.577L113.498 -106.384C115.857 -105.267 118.152 -104.036 120.376 -102.7L119.347 -100.986C121.525 -99.6771 123.635 -98.2643 125.667 -96.7542L126.86 -98.3597C128.951 -96.8065 130.963 -95.153 132.889 -93.4064L131.545 -91.9249C133.425 -90.2204 135.22 -88.4249 136.925 -86.5454L138.406 -87.889C140.153 -85.963 141.806 -83.951 143.36 -81.8601L141.754 -80.6675C143.264 -78.6347 144.677 -76.5254 145.986 -74.3466L147.7 -75.3764C149.036 -73.1521 150.267 -70.8571 151.384 -68.4984L149.577 -67.642C150.658 -65.3594 151.631 -63.0156 152.49 -60.6172L154.373 -61.2911C155.245 -58.8547 156.001 -56.3635 156.635 -53.8238L154.695 -53.3393C155.305 -50.8963 155.799 -48.4073 156.171 -45.8784L158.15 -46.1694C158.525 -43.6179 158.779 -41.0269 158.906 -38.4025L156.908 -38.3059C156.969 -37.0451 157 -35.7762 157 -34.5V-30.544H159V-22.6323H157V-14.7205H159V-6.80875H157V1.103H159V9.01476H157V16.9265H159V24.8383H157V32.75H159V40.6618H157V48.5736H159V56.4853H157V64.3971H159V72.3088H157V80.2206H159V88.1324H157V96.0441H159V103.956H157V111.868H159V119.779H157V127.691H159V135.603H157V143.515H159V151.426H157V159.338H159V167.25H157V175.162H159V183.074H157V190.985H159V198.897H157V206.809H159V214.721H157V222.632H159V230.544H157V234.5C157 235.776 156.969 237.045 156.908 238.306L158.906 238.402C158.779 241.027 158.525 243.618 158.15 246.169L156.171 245.878C155.799 248.407 155.305 250.896 154.695 253.339L156.635 253.824C156.001 256.363 155.245 258.855 154.373 261.291L152.49 260.617C151.631 263.016 150.658 265.359 149.577 267.642L151.384 268.498C150.267 270.857 149.036 273.152 147.7 275.376L145.986 274.347C144.677 276.525 143.264 278.635 141.754 280.667L143.36 281.86C141.806 283.951 140.153 285.963 138.406 287.889L136.925 286.545C135.22 288.425 133.425 290.22 131.545 291.925L132.889 293.406C130.963 295.153 128.951 296.806 126.86 298.36L125.668 296.754C123.635 298.264 121.525 299.677 119.347 300.986L120.376 302.7C118.152 304.036 115.857 305.267 113.498 306.384L112.642 304.577C110.359 305.658 108.016 306.631 105.617 307.49L106.291 309.373C103.855 310.245 101.363 311.001 98.8238 311.635L98.3393 309.695C95.8963 310.305 93.4073 310.799 90.8784 311.171L91.1694 313.15C88.6179 313.525 86.0269 313.779 83.4025 313.906L83.3059 311.908C82.0451 311.969 80.7762 312 79.5 312C78.2238 312 76.9549 311.969 75.6941 311.908L75.5975 313.906C72.9731 313.779 70.3821 313.525 67.8306 313.15L68.1216 311.171C65.5927 310.799 63.1037 310.305 60.6607 309.695L60.1762 311.635C57.6365 311.001 55.1453 310.245 52.7089 309.373L53.3828 307.49C50.9844 306.631 48.6406 305.658 46.358 304.577L45.5016 306.384C43.1429 305.267 40.8479 304.036 38.6236 302.7L39.6534 300.986C37.4746 299.677 35.3654 298.264 33.3325 296.754L32.1399 298.36C30.049 296.806 28.037 295.153 26.111 293.406L27.4546 291.925C25.5751 290.22 23.7796 288.425 22.0751 286.545L20.5936 287.889C18.847 285.963 17.1935 283.951 15.6403 281.86L17.2458 280.668C15.7357 278.635 14.3229 276.525 13.0142 274.347L11.2997 275.376C9.96371 273.152 8.73345 270.857 7.61587 268.498L9.42326 267.642C8.34176 265.359 7.36857 263.016 6.51028 260.617L4.62722 261.291C3.75536 258.855 2.99904 256.363 2.36485 253.824L4.30527 253.339C3.69523 250.896 3.20111 248.407 2.82911 245.878L0.850401 246.169Z" stroke="white" stroke-width="4" stroke-dasharray="8 8"/>
</svg>
