<svg width="23" height="111" viewBox="0 0 23 111" fill="none" xmlns="http://www.w3.org/2000/svg">
<path d="M-15.9043 25.3252C-15.9043 14.5821 -7.19528 5.87305 3.54783 5.87305C14.2909 5.87305 23 14.5821 23 25.3252V91.1443C23 101.887 14.2909 110.596 3.54783 110.596C-7.19528 110.596 -15.9043 101.887 -15.9043 91.1443V25.3252Z" fill="#DC0362"/>
<path d="M-19.7236 96.0792C-21.1208 93.9921 -22.1249 91.6196 -22.6297 89.0676L-21.6488 88.8735C-21.8791 87.7093 -22 86.5049 -22 85.2713V81.1576H-23V72.9302H-22V64.7028H-23V56.4754H-22V48.248H-23V40.0206H-22V31.7932H-23V23.5658H-22V19.4521C-22 18.2185 -21.8791 17.0141 -21.6488 15.8499L-22.6297 15.6558C-22.1249 13.1038 -21.1208 10.7313 -19.7236 8.64422L-18.8926 9.20054C-17.5452 7.18788 -15.8121 5.45482 -13.7995 4.10738L-14.3558 3.27641C-12.2687 1.87917 -9.8962 0.875118 -7.34419 0.370253L-7.15012 1.35124C-5.98586 1.12092 -4.78148 1 -3.54787 1C-2.31426 1 -1.10988 1.12092 0.0543728 1.35124L0.248442 0.370252C2.80046 0.875118 5.17299 1.87917 7.26003 3.27641L6.70371 4.10738C8.71638 5.45482 10.4494 7.18788 11.7969 9.20054L12.6278 8.64422C14.0251 10.7313 15.0291 13.1038 15.534 15.6558L14.553 15.8499C14.7833 17.0141 14.9043 18.2185 14.9043 19.4521V23.5658H15.9043V31.7932H14.9043V40.0206H15.9043V48.248H14.9043V56.4754H15.9043V64.7028H14.9043V72.9302H15.9043V81.1576H14.9043V85.2713C14.9043 86.5049 14.7833 87.7093 14.553 88.8735L15.534 89.0676C15.0291 91.6196 14.0251 93.9921 12.6278 96.0792L11.7969 95.5229C10.4494 97.5355 8.71638 99.2686 6.70371 100.616L7.26003 101.447C5.17298 102.844 2.80046 103.848 0.248444 104.353L0.0543747 103.372C-1.10988 103.602 -2.31426 103.723 -3.54787 103.723C-4.78148 103.723 -5.98586 103.602 -7.15012 103.372L-7.34419 104.353C-9.8962 103.848 -12.2687 102.844 -14.3558 101.447L-13.7995 100.616C-15.8121 99.2686 -17.5452 97.5355 -18.8926 95.5229L-19.7236 96.0792Z" stroke="white" stroke-width="2" stroke-dasharray="8 8"/>
</svg>
