<svg width="169" height="153" viewBox="0 0 169 153" fill="none" xmlns="http://www.w3.org/2000/svg">
<path d="M157.477 0H165.159V2H166.703L166.622 2.585L168.603 2.85981L167.81 8.57944L165.829 8.30463L165.448 11.0508L164.328 15.3912L166.264 15.891L163.966 24.7944L162.03 24.2946L160.881 28.7464C160.584 29.8958 160.274 31.041 159.95 32.1816L161.873 32.7284C161.215 35.0442 160.501 37.3416 159.732 39.6186L157.837 38.9788C157.078 41.2283 156.264 43.4577 155.396 45.665L157.258 46.3964C156.378 48.6359 155.444 50.8529 154.456 53.0456L152.633 52.2244C151.658 54.3881 150.632 56.5278 149.553 58.6415L151.334 59.5505C150.241 61.6925 149.096 63.8082 147.899 65.8956L146.164 64.9009C144.985 66.9583 143.755 68.9879 142.475 70.9878L144.159 72.0659C142.864 74.0901 141.518 76.0844 140.123 78.0466L138.493 76.8878C137.806 77.8542 137.107 78.8128 136.396 79.7633C135.673 80.7285 134.94 81.6841 134.195 82.6301L135.766 83.8675C134.253 85.7883 132.695 87.6694 131.092 89.5096L129.584 88.196C128 90.0141 126.372 91.7916 124.703 93.527L126.144 94.9136C124.45 96.6744 122.713 98.3925 120.935 100.066L119.564 98.6101C117.81 100.262 116.015 101.87 114.181 103.433L115.478 104.955C113.619 106.539 111.721 108.077 109.786 109.568L108.565 107.983C106.657 109.453 104.712 110.876 102.731 112.251L103.872 113.894C101.867 115.285 99.8266 116.628 97.7516 117.921L96.6938 116.224C95.6719 116.861 94.6416 117.486 93.6031 118.098L91.5144 119.329L92.53 121.052L88.3526 123.514L87.3371 121.791L85.2484 123.022C84.0578 123.724 82.8603 124.412 81.6561 125.088L82.6347 126.832C80.1988 128.199 77.7357 129.512 75.2471 130.772L74.3437 128.988C71.8777 130.236 69.3865 131.432 66.8718 132.573L67.6983 134.394C65.156 135.548 62.59 136.647 60.002 137.691L59.2539 135.836C56.6917 136.87 54.1078 137.848 51.5038 138.772L52.1723 140.657C49.5422 141.589 46.8919 142.466 44.2233 143.286L43.6358 141.375C40.9961 142.186 38.3382 142.941 35.6639 143.64L36.1695 145.575C33.4707 146.28 30.7555 146.928 28.0254 147.518L27.6028 145.563C26.2532 145.855 24.9 146.132 23.5433 146.396L20.5528 146.976L20.9337 148.939L14.9526 150.099L14.5718 148.136L8.59071 149.296L8.97158 151.26L2.99053 152.42L2.60965 150.456L2 150.575V149.175H0V141.525H2V133.875H0V126.225H2V118.575H0V110.925H2V103.275H0V95.625H2V87.975H0V80.325H2V72.675H0V65.025H2V57.375H0V49.725H2V42.075H0V34.425H2V26.775H0V19.125H2V11.475H0V3.825H2V2H3.84092V0H11.5227V2H19.2046V0H26.8864V2H34.5682V0H42.25V2H49.9318V0H57.6137V2H65.2955V0H72.9773V2H80.6591V0H88.3409V2H96.0227V0H103.705V2H111.386V0H119.068V2H126.75V0H134.432V2H142.114V0H149.795V2H157.477V0Z" stroke="white" stroke-width="4" stroke-dasharray="8 8"/>
</svg>
