<svg width="72" height="72" viewBox="0 0 72 72" fill="none" xmlns="http://www.w3.org/2000/svg">
<path d="M32.1022 3.91061C33.0554 -0.22483 38.9446 -0.224841 39.8978 3.9106L42.0544 13.2668C42.6698 15.9369 45.727 17.2117 48.0571 15.7698L56.2946 10.672C59.9197 8.42864 64.0711 12.6564 61.7619 16.24L56.7569 24.0074C55.248 26.3491 56.535 29.4774 59.2548 30.0795L68.3575 32.0945C72.5382 33.02 72.5382 38.98 68.3576 39.9055L59.2548 41.9205C56.535 42.5226 55.248 45.6509 56.7569 47.9926L61.7619 55.76C64.0711 59.3436 59.9197 63.5714 56.2946 61.328L48.0571 56.2302C45.727 54.7883 42.6698 56.0631 42.0544 58.7332L39.8978 68.0894C38.9446 72.2248 33.0554 72.2248 32.1022 68.0894L29.9456 58.7332C29.3302 56.0631 26.273 54.7883 23.9429 56.2302L15.7054 61.328C12.0803 63.5714 7.92894 59.3436 10.2381 55.76L15.2431 47.9926C16.752 45.6509 15.465 42.5226 12.7452 41.9205L3.64245 39.9055C-0.538161 38.98 -0.538168 33.02 3.64245 32.0945L12.7452 30.0795C15.465 29.4774 16.752 26.3491 15.2431 24.0074L10.2381 16.24C7.92894 12.6564 12.0803 8.42865 15.7054 10.672L23.9429 15.7698C26.273 17.2117 29.3302 15.9369 29.9456 13.2668L32.1022 3.91061Z" fill="#E0005E"/>
</svg>
